<svg height='100px' width='100px'  fill="#CC6900" xmlns="http://www.w3.org/2000/svg" data-name="Layer 1" viewBox="0 0 128 128" x="0px" y="0px"><title>Modern Education 01 final</title><path d="M118,114a2,2,0,0,0,0-4h-7.52179A8.99415,8.99415,0,0,0,103,96H71.43036c16.9245-16.27789,45.12067,3.423,45.40948,3.62939a2.00031,2.00031,0,0,0,2.32129-3.2583c-.32617-.23193-32.793-22.96484-51.92871-1.791A4.168,4.168,0,0,1,64.17334,96h-.34668a4.16538,4.16538,0,0,1-3.05859-1.41992c-19.13818-21.1748-51.603,1.55908-51.92871,1.791a2,2,0,0,0,2.32031,3.2583C11.44989,99.42352,39.64429,79.72113,56.56921,96H20a2,2,0,0,0,0,4h4v10H20a2,2,0,0,0,0,4h7.52191A8.994,8.994,0,0,0,35,128h83a2,2,0,0,0,0-4h-4V114Zm-90-4V100h75a5,5,0,0,1,0,10H28Zm82,14H35a5,5,0,0,1,0-10h75Z"></path><path d="M7.07465,91.00616a4.00005,4.00005,0,0,0,4.0719-.13092c.153-.09692,15.76471-9.87805,30.66516-9.87744,8.25488.00031,14.46851,2.91553,18.996,8.91235a4,4,0,0,0,6.3847,0C71.72,83.913,77.93262,80.9978,86.18518,80.9978c14.96124.00116,30.51337,9.77893,30.6687,9.87769A3.99994,3.99994,0,0,0,123,87.5V87a4.00012,4.00012,0,0,0-1.17206-2.829l-26.81-26.8a4.00017,4.00017,0,0,0-2.43665-1.15186,19.07024,19.07024,0,0,1-2.00641-.336,26.25322,26.25322,0,0,1-.98517,3.876A23.55851,23.55851,0,0,0,92.19,60.2L119,87v.5S102.48352,76.999,86.18817,76.99774C78.91748,76.99719,71.69708,79.09857,66,85.144V80.15a5.88871,5.88871,0,0,1-4,0V85.1441c-5.69672-6.04431-12.91882-8.14606-20.18811-8.14636C25.51508,76.99713,9,87.5,9,87.5V87L35.81,60.2c.84381-.08215,1.72864-.2085,2.63031-.34882A26.26977,26.26977,0,0,1,37.4386,55.96c-.69879.10461-1.37683.19653-2.01611.25879A4.00007,4.00007,0,0,0,32.98212,57.371l-26.81,26.8A3.99993,3.99993,0,0,0,5,87v.5A4.00008,4.00008,0,0,0,7.07465,91.00616Z"></path><path d="M46.61084,65h.00244a2.00033,2.00033,0,0,0,1.67334-.9043l3.59845-5.4953C52.31763,59.71674,52.778,60.84814,53.277,62H54v6.5a2,2,0,0,0,4,0V62h4V74.5a2,2,0,0,0,4,0V62h4v6.5a2,2,0,0,0,4,0V62h.723c.49908-1.152.95947-2.28363,1.39209-3.40009l3.59875,5.49579A1.99821,1.99821,0,0,0,81.38672,65h.00293a1.99869,1.99869,0,0,0,1.67284-.90869c8.59406-13.19421.77491-25.54388-2.06725-29.29A43.01069,43.01069,0,0,0,64.16815.07172a.23292.23292,0,0,0-.33624,0A43.01051,43.01051,0,0,0,47.00482,34.8006c-2.8418,3.74524-10.66235,16.09576-2.06733,29.2912A2.00031,2.00031,0,0,0,46.61084,65ZM80.55841,41.64429c2.1001,4.25305,3.83441,10.62775.68768,17.49l-3.45349-5.2735A67.8768,67.8768,0,0,0,80.55841,41.64429ZM64,5.17249C77.85773,17.72968,80.69818,36.31818,72.05518,58H55.94482C47.30188,36.31812,50.14227,17.72961,64,5.17249ZM47.43121,41.56671a67.82672,67.82672,0,0,0,2.77606,12.2937L46.751,59.13916C43.5368,52.18829,45.3009,45.80347,47.43121,41.56671Z"></path><path d="M64,39.14a8,8,0,1,0-8-8A8.009,8.009,0,0,0,64,39.14Zm0-12a4,4,0,1,1-4,4A4,4,0,0,1,64,27.14Z"></path><path d="M67,46H61a2,2,0,0,0,0,4h6a2,2,0,0,0,0-4Z"></path></svg>